REM DIRINDEX 1\2\6,1\2\7,1\2\8,1\2\9,1\3\10,1\3\11,1\4\12,1\4\13,1\4\14,1\5\15,1\5\16,1\5\17
REM DIRNAME cjc029,folder01,folder02,folder03,folder04,folder05,folder06,folder07,folder08,folder09,folder10,folder11,folder12,folder13,folder14,folder15,folder16
TITLE ""
FILE "1400_3_sec01_0001_0016.mp3" MP3
  TRACK 01 AUDIO
    TITLE "0:"
    INDEX 01 00:00:00
  TRACK 02 AUDIO
    TITLE "15:cjc029_4425"
    INDEX 01 00:00:19
  TRACK 03 AUDIO
    TITLE "0:"
    INDEX 01 00:04:36
  TRACK 04 AUDIO
    TITLE "15:cjc029_4426"
    INDEX 01 00:06:08
  TRACK 05 AUDIO
    TITLE "0:"
    INDEX 01 00:10:29
  TRACK 06 AUDIO
    TITLE "15:cjc029_4427"
    INDEX 01 00:11:07
  TRACK 07 AUDIO
    TITLE "0:"
    INDEX 01 00:12:38
  TRACK 08 AUDIO
    TITLE "17:cjc029_4428"
    INDEX 01 00:13:45
  TRACK 09 AUDIO
    TITLE "0:"
    INDEX 01 00:14:35
  TRACK 10 AUDIO
    TITLE "16:cjc029_4429"
    INDEX 01 00:14:43
  TRACK 11 AUDIO
    TITLE "0:"
    INDEX 01 00:15:44
  TRACK 12 AUDIO
    TITLE "17:cjc029_4430"
    INDEX 01 00:16:26
  TRACK 13 AUDIO
    TITLE "0:"
    INDEX 01 00:17:55
  TRACK 14 AUDIO
    TITLE "16:cjc029_4431"
    INDEX 01 00:17:61
  TRACK 15 AUDIO
    TITLE "0:"
    INDEX 01 00:18:68
  TRACK 16 AUDIO
    TITLE "17:cjc029_4432"
    INDEX 01 00:19:58
  TRACK 17 AUDIO
    TITLE "0:"
    INDEX 01 00:21:25
  TRACK 18 AUDIO
    TITLE "16:cjc029_4433"
    INDEX 01 00:21:31
  TRACK 19 AUDIO
    TITLE "0:"
    INDEX 01 00:22:42
  TRACK 20 AUDIO
    TITLE "17:cjc029_4434"
    INDEX 01 00:23:26
  TRACK 21 AUDIO
    TITLE "0:"
    INDEX 01 00:24:31
  TRACK 22 AUDIO
    TITLE "16:cjc029_4435"
    INDEX 01 00:24:35
  TRACK 23 AUDIO
    TITLE "0:"
    INDEX 01 00:25:52
  TRACK 24 AUDIO
    TITLE "17:cjc029_4436"
    INDEX 01 00:26:38
  TRACK 25 AUDIO
    TITLE "0:"
    INDEX 01 00:27:69
  TRACK 26 AUDIO
    TITLE "16:cjc029_4437"
    INDEX 01 00:28:02
  TRACK 27 AUDIO
    TITLE "0:"
    INDEX 01 00:29:03
  TRACK 28 AUDIO
    TITLE "17:cjc029_4438"
    INDEX 01 00:29:60
  TRACK 29 AUDIO
    TITLE "0:"
    INDEX 01 00:31:18
  TRACK 30 AUDIO
    TITLE "16:cjc029_4439"
    INDEX 01 00:31:24
  TRACK 31 AUDIO
    TITLE "0:"
    INDEX 01 00:32:29
  TRACK 32 AUDIO
    TITLE "17:cjc029_4440"
    INDEX 01 00:33:15
  TRACK 33 AUDIO
    TITLE "0:"
    INDEX 01 00:34:53
  TRACK 34 AUDIO
    TITLE "16:cjc029_4441"
    INDEX 01 00:34:61
  TRACK 35 AUDIO
    TITLE "0:"
    INDEX 01 00:35:72
  TRACK 36 AUDIO
    TITLE "17:cjc029_4442"
    INDEX 01 00:36:54
  TRACK 37 AUDIO
    TITLE "0:"
    INDEX 01 00:38:10
  TRACK 38 AUDIO
    TITLE "16:cjc029_4443"
    INDEX 01 00:38:22
  TRACK 39 AUDIO
    TITLE "0:"
    INDEX 01 00:39:33
  TRACK 40 AUDIO
    TITLE "17:cjc029_4444"
    INDEX 01 00:40:21
  TRACK 41 AUDIO
    TITLE "0:"
    INDEX 01 00:41:36
  TRACK 42 AUDIO
    TITLE "16:cjc029_4445"
    INDEX 01 00:41:45
  TRACK 43 AUDIO
    TITLE "0:"
    INDEX 01 00:42:57
  TRACK 44 AUDIO
    TITLE "17:cjc029_4446"
    INDEX 01 00:43:44
  TRACK 45 AUDIO
    TITLE "0:"
    INDEX 01 00:44:61
  TRACK 46 AUDIO
    TITLE "16:cjc029_4447"
    INDEX 01 00:44:65
  TRACK 47 AUDIO
    TITLE "0:"
    INDEX 01 00:46:06
  TRACK 48 AUDIO
    TITLE "17:cjc029_4448"
    INDEX 01 00:46:62
  TRACK 49 AUDIO
    TITLE "0:"
    INDEX 01 00:47:64
  TRACK 50 AUDIO
    TITLE "16:cjc029_4449"
    INDEX 01 00:47:70
  TRACK 51 AUDIO
    TITLE "0:"
    INDEX 01 00:49:06
  TRACK 52 AUDIO
    TITLE "17:cjc029_4450"
    INDEX 01 00:49:67
  TRACK 53 AUDIO
    TITLE "0:"
    INDEX 01 00:53:17
  TRACK 54 AUDIO
    TITLE "16:cjc029_4451"
    INDEX 01 00:53:23
  TRACK 55 AUDIO
    TITLE "0:"
    INDEX 01 00:54:38
  TRACK 56 AUDIO
    TITLE "17:cjc029_4452"
    INDEX 01 00:55:20
  TRACK 57 AUDIO
    TITLE "0:"
    INDEX 01 00:56:16
  TRACK 58 AUDIO
    TITLE "16:cjc029_4453"
    INDEX 01 00:56:24
  TRACK 59 AUDIO
    TITLE "0:"
    INDEX 01 00:57:29
  TRACK 60 AUDIO
    TITLE "17:cjc029_4454"
    INDEX 01 00:58:13
  TRACK 61 AUDIO
    TITLE "0:"
    INDEX 01 00:59:12
  TRACK 62 AUDIO
    TITLE "16:cjc029_4455"
    INDEX 01 00:59:18
  TRACK 63 AUDIO
    TITLE "0:"
    INDEX 01 01:00:33
  TRACK 64 AUDIO
    TITLE "17:cjc029_4456"
    INDEX 01 01:01:13
  TRACK 65 AUDIO
    TITLE "0:"
    INDEX 01 01:02:38
  TRACK 66 AUDIO
    TITLE "16:cjc029_4457"
    INDEX 01 01:02:46
  TRACK 67 AUDIO
    TITLE "0:"
    INDEX 01 01:03:61
  TRACK 68 AUDIO
    TITLE "17:cjc029_4458"
    INDEX 01 01:04:48
  TRACK 69 AUDIO
    TITLE "0:"
    INDEX 01 01:06:08
  TRACK 70 AUDIO
    TITLE "16:cjc029_4459"
    INDEX 01 01:06:12
  TRACK 71 AUDIO
    TITLE "0:"
    INDEX 01 01:07:33
